<?xml version="1.0" encoding="utf-8"?>
<!-- Generator: Adobe Illustrator 22.1.0, SVG Export Plug-In . SVG Version: 6.00 Build 0)  -->
<svg version="1.1" id="Capa_1" xmlns="http://www.w3.org/2000/svg" xmlns:xlink="http://www.w3.org/1999/xlink" x="0px" y="0px"
	 viewBox="0 0 30 30" style="enable-background:new 0 0 30 30;" xml:space="preserve">
<style type="text/css">
	.st0{fill:#FFD347;}
	.st1{fill:#FFBE31;}
</style>
<g>
	<circle class="st0" cx="15" cy="15" r="8.5"/>
	<path class="st1" d="M15,6.5c-0.3,0-0.6,0-0.9,0c4.3,0.5,7.6,4.1,7.6,8.4s-3.3,8-7.6,8.4c0.3,0,0.6,0,0.9,0c4.7,0,8.5-3.8,8.5-8.5
		S19.7,6.5,15,6.5z"/>
	<path d="M15,23.9c-4.9,0-8.9-4-8.9-8.9c0-2,0.7-4,2-5.6c0.2-0.2,0.4-0.2,0.6-0.1C8.9,9.5,8.9,9.8,8.7,10C7.6,11.4,7,13.2,7,15
		c0,4.4,3.6,8,8,8s8-3.6,8-8s-3.6-8-8-8c-1.8,0-3.5,0.6-5,1.7C9.8,8.8,9.6,8.8,9.4,8.6C9.2,8.4,9.3,8.1,9.5,8
		C11.1,6.7,13,6.1,15,6.1c4.9,0,8.9,4,8.9,8.9S19.9,23.9,15,23.9z"/>
	<path d="M15,3.3c-0.3,0-0.5-0.2-0.5-0.5V0.5C14.5,0.2,14.7,0,15,0c0.3,0,0.5,0.2,0.5,0.5v2.4C15.5,3.1,15.3,3.3,15,3.3z"/>
	<path d="M8.9,5C8.8,5,8.6,4.9,8.5,4.7L7.3,2.6C7.2,2.4,7.3,2.1,7.5,2C7.7,1.9,8,2,8.1,2.2l1.2,2.1c0.1,0.2,0.1,0.5-0.2,0.6
		C9.1,4.9,9,5,8.9,5z"/>
	<path d="M4.5,9.4c-0.1,0-0.2,0-0.2-0.1L2.2,8.1C2,8,1.9,7.7,2,7.5c0.1-0.2,0.4-0.3,0.6-0.2l2.1,1.2C4.9,8.7,5,8.9,4.9,9.2
		C4.8,9.3,4.7,9.4,4.5,9.4z"/>
	<path d="M2.9,15.5H0.5C0.2,15.5,0,15.3,0,15s0.2-0.5,0.5-0.5h2.4c0.3,0,0.5,0.2,0.5,0.5C3.3,15.3,3.1,15.5,2.9,15.5z"/>
	<path d="M2.4,22.7c-0.2,0-0.3-0.1-0.4-0.2C1.9,22.3,2,22,2.2,21.9l2.1-1.2c0.2-0.1,0.5-0.1,0.6,0.2c0.1,0.2,0.1,0.5-0.2,0.6
		l-2.1,1.2C2.6,22.7,2.5,22.7,2.4,22.7z"/>
	<path d="M7.7,28.1c-0.1,0-0.2,0-0.2-0.1c-0.2-0.1-0.3-0.4-0.2-0.6l1.2-2.1c0.1-0.2,0.4-0.3,0.6-0.2c0.2,0.1,0.3,0.4,0.2,0.6
		l-1.2,2.1C8,28,7.9,28.1,7.7,28.1z"/>
	<path d="M15,30c-0.3,0-0.5-0.2-0.5-0.5v-2.4c0-0.3,0.2-0.5,0.5-0.5c0.3,0,0.5,0.2,0.5,0.5v2.4C15.5,29.8,15.3,30,15,30z"/>
	<path d="M22.3,28.1c-0.2,0-0.3-0.1-0.4-0.2l-1.2-2.1c-0.1-0.2-0.1-0.5,0.2-0.6c0.2-0.1,0.5-0.1,0.6,0.2l1.2,2.1
		c0.1,0.2,0.1,0.5-0.2,0.6C22.4,28,22.4,28.1,22.3,28.1z"/>
	<path d="M27.6,22.7c-0.1,0-0.2,0-0.2-0.1l-2.1-1.2c-0.2-0.1-0.3-0.4-0.2-0.6c0.1-0.2,0.4-0.3,0.6-0.2l2.1,1.2
		c0.2,0.1,0.3,0.4,0.2,0.6C27.9,22.6,27.8,22.7,27.6,22.7z"/>
	<path d="M29.5,15.5h-2.4c-0.3,0-0.5-0.2-0.5-0.5s0.2-0.5,0.5-0.5h2.4c0.3,0,0.5,0.2,0.5,0.5C30,15.3,29.8,15.5,29.5,15.5z"/>
	<path d="M25.5,9.4c-0.2,0-0.3-0.1-0.4-0.2c-0.1-0.2-0.1-0.5,0.2-0.6l2.1-1.2c0.2-0.1,0.5-0.1,0.6,0.2C28.1,7.7,28,8,27.8,8.1
		l-2.1,1.2C25.7,9.4,25.6,9.4,25.5,9.4z"/>
	<path d="M21.1,5c-0.1,0-0.2,0-0.2-0.1c-0.2-0.1-0.3-0.4-0.2-0.6l1.2-2.1C22,2,22.3,1.9,22.5,2c0.2,0.1,0.3,0.4,0.2,0.6l-1.2,2.1
		C21.4,4.9,21.2,5,21.1,5z"/>
</g>
</svg>
