<?xml version="1.0" encoding="utf-8"?>
<!-- Generator: Adobe Illustrator 22.1.0, SVG Export Plug-In . SVG Version: 6.00 Build 0)  -->
<svg version="1.1" id="Capa_1" xmlns="http://www.w3.org/2000/svg" xmlns:xlink="http://www.w3.org/1999/xlink" x="0px" y="0px"
	 viewBox="0 0 30 30" style="enable-background:new 0 0 30 30;" xml:space="preserve">
<style type="text/css">
	.st0{fill:#EAB14D;}
	.st1{fill:#E49542;}
	.st2{fill:#F4FBFF;}
	.st3{fill:#DAF1F4;}
	.st4{fill:#365E7D;}
</style>
<g>
	<circle class="st0" cx="15" cy="15" r="14.6"/>
	<path class="st1" d="M15,0.4c-0.3,0-0.5,0-0.8,0C21.9,0.9,28,7.2,28,15s-6.1,14.1-13.8,14.5c0.3,0,0.5,0,0.8,0
		c8,0,14.6-6.5,14.6-14.6S23,0.4,15,0.4z"/>
	<circle class="st2" cx="15" cy="15" r="11.3"/>
	<path class="st3" d="M15,3.7c-0.3,0-0.6,0-0.9,0C19.9,4.2,24.5,9,24.5,15s-4.6,10.8-10.4,11.3c0.3,0,0.6,0,0.9,0
		c6.3,0,11.3-5.1,11.3-11.3S21.3,3.7,15,3.7z"/>
	<circle class="st4" cx="15" cy="15" r="1.2"/>
	<g>
		<path d="M15,7.1c0.2,0,0.4-0.2,0.4-0.4V6.1c0-0.2-0.2-0.4-0.4-0.4c-0.2,0-0.4,0.2-0.4,0.4v0.6C14.6,6.9,14.8,7.1,15,7.1z"/>
		<path d="M21.6,8.4c-0.2-0.2-0.4-0.2-0.6,0l-0.5,0.5c-0.2,0.2-0.2,0.4,0,0.6c0.1,0.1,0.2,0.1,0.3,0.1c0.1,0,0.2,0,0.3-0.1L21.6,9
			C21.8,8.8,21.8,8.6,21.6,8.4L21.6,8.4z"/>
		<path d="M23.2,14.6c-0.2,0-0.4,0.2-0.4,0.4s0.2,0.4,0.4,0.4h0.6c0.2,0,0.4-0.2,0.4-0.4s-0.2-0.4-0.4-0.4H23.2z"/>
		<path d="M21.1,20.5c-0.2-0.2-0.4-0.2-0.6,0c-0.2,0.2-0.2,0.4,0,0.6l0.5,0.5c0.1,0.1,0.2,0.1,0.3,0.1s0.2,0,0.3-0.1
			c0.2-0.2,0.2-0.4,0-0.6L21.1,20.5z"/>
		<path d="M14.5,23.2v0.6c0,0.2,0.2,0.4,0.4,0.4c0.2,0,0.4-0.2,0.4-0.4v-0.6c0-0.2-0.2-0.4-0.4-0.4S14.5,23,14.5,23.2L14.5,23.2z"/>
		<path d="M8.8,20.5L8.3,21c-0.2,0.2-0.2,0.4,0,0.6c0.1,0.1,0.2,0.1,0.3,0.1s0.2,0,0.3-0.1l0.5-0.5c0.2-0.2,0.2-0.4,0-0.6
			C9.3,20.3,9,20.3,8.8,20.5L8.8,20.5z"/>
		<path d="M6.1,14.5c-0.2,0-0.4,0.2-0.4,0.4c0,0.2,0.2,0.4,0.4,0.4h0.6c0.2,0,0.4-0.2,0.4-0.4c0-0.2-0.2-0.4-0.4-0.4L6.1,14.5z"/>
		<path d="M9.5,8.8L9,8.3c-0.2-0.2-0.4-0.2-0.6,0C8.2,8.5,8.2,8.8,8.4,9l0.5,0.5C8.9,9.5,9,9.6,9.1,9.6c0.1,0,0.2,0,0.3-0.1
			C9.6,9.3,9.6,9,9.5,8.8z"/>
		<path d="M16.2,16.1l3.1,1.6c0.2,0.1,0.5,0,0.6-0.2c0.1-0.2,0-0.5-0.2-0.6l-3.1-1.6c0-0.1,0-0.2,0-0.3c0-0.7-0.5-1.4-1.2-1.6V9
			c0-0.2-0.2-0.4-0.4-0.4c-0.2,0-0.4,0.2-0.4,0.4v4.5c-0.5,0.2-1,0.6-1.1,1.1h-2.2c-0.2,0-0.4,0.2-0.4,0.4c0,0.2,0.2,0.4,0.4,0.4
			h2.2c0.2,0.7,0.8,1.2,1.6,1.2C15.5,16.6,15.9,16.4,16.2,16.1L16.2,16.1z M15,15.7c-0.4,0-0.7-0.3-0.7-0.7c0-0.4,0.3-0.7,0.7-0.7
			c0.4,0,0.7,0.3,0.7,0.7C15.7,15.4,15.4,15.7,15,15.7z"/>
		<path d="M26.3,14.6c0.2,0,0.4-0.2,0.4-0.5c-0.2-3-1.5-5.7-3.7-7.7c-2.2-2-5-3.2-8-3.2C8.5,3.2,3.2,8.5,3.2,15S8.5,26.8,15,26.8
			c6.1,0,11.3-4.7,11.8-10.9c0-0.2-0.2-0.5-0.4-0.5c-0.2,0-0.5,0.2-0.5,0.4c-0.4,5.7-5.2,10.1-10.9,10.1C9,25.9,4.1,21,4.1,15
			S9,4.1,15,4.1c2.8,0,5.4,1,7.4,2.9c2,1.9,3.2,4.4,3.4,7.1C25.9,14.4,26.1,14.6,26.3,14.6L26.3,14.6z"/>
		<path d="M25.6,4.4C22.8,1.6,19,0,15,0c-2.9,0-5.7,0.8-8.1,2.4C6.7,2.5,6.6,2.8,6.8,3c0.1,0.2,0.4,0.3,0.6,0.1
			c2.3-1.5,4.9-2.2,7.6-2.2c3.8,0,7.3,1.5,10,4.1s4.1,6.2,4.1,10c0,7.8-6.3,14.1-14.1,14.1c-1.4,0-2.8-0.2-4.1-0.6
			c-0.2-0.1-0.5,0.1-0.5,0.3c-0.1,0.2,0.1,0.5,0.3,0.5c1.4,0.4,2.9,0.6,4.4,0.6c8.3,0,15-6.7,15-15C30,11,28.4,7.2,25.6,4.4
			L25.6,4.4z"/>
		<path d="M9.3,27.9C4.2,25.7,0.9,20.6,0.9,15c0-4.2,1.9-8.2,5.1-10.9C6.2,4,6.2,3.7,6.1,3.5C5.9,3.3,5.6,3.3,5.4,3.4
			C2,6.3,0,10.5,0,15c0,5.9,3.5,11.3,8.9,13.7c0.1,0,0.1,0,0.2,0c0.2,0,0.3-0.1,0.4-0.3C9.6,28.3,9.5,28,9.3,27.9L9.3,27.9z"/>
	</g>
</g>
</svg>
