<?xml version="1.0" encoding="utf-8"?>
<!-- Generator: Adobe Illustrator 22.1.0, SVG Export Plug-In . SVG Version: 6.00 Build 0)  -->
<svg version="1.1" id="Capa_1" xmlns="http://www.w3.org/2000/svg" xmlns:xlink="http://www.w3.org/1999/xlink" x="0px" y="0px"
	 viewBox="0 0 30 28.2" style="enable-background:new 0 0 30 28.2;" xml:space="preserve">
<style type="text/css">
	.st0{fill:#FFD347;}
	.st1{fill:#7FCCCB;}
	.st2{fill:#FFBF41;}
	.st3{fill:#FFBE31;}
</style>
<g>
	<path class="st0" d="M17.1,20.1c-4.9,0-8.8-4-8.8-8.8c0-2.6,1.2-5.1,3.2-6.8C6,6.1,2.9,11.9,4.6,17.4S12,26,17.5,24.3
		c4-1.2,6.9-4.7,7.3-8.8C23.3,18.3,20.3,20.1,17.1,20.1z"/>
	<g>
		<path class="st1" d="M4.7,24.7h-1v-1h-1v1h-1v1h1v1h1v-1h1V24.7z"/>
		<path class="st1" d="M25.9,10.7v-1h-1v-1h-1v1h-1v1h1v1h1v-1H25.9z"/>
		<path class="st1" d="M29.1,12.7h-1v-1h-1v1h-1v1h1v1h1v-1h1V12.7z"/>
		<path class="st1" d="M2.1,4.4H1v1H0v1h1v1h1v-1h1v-1h-1V4.4z"/>
	</g>
	<g>
		<path class="st0" d="M19.2,0.5l1,2l2.2,0.3l-1.6,1.5l0.4,2.2l-2-1l-2,1l0.4-2.2l-1.6-1.5l2.2-0.3L19.2,0.5z"/>
		<path class="st0" d="M16.1,9.3l1,2l2.2,0.3l-1.6,1.5l0.4,2.2l-2-1l-2,1l0.4-2.2L13,11.6l2.2-0.3L16.1,9.3z"/>
	</g>
	<path class="st2" d="M26.2,21l0.7,2.6l2.6,0.7l-2.6,0.7l-0.7,2.6l-0.7-2.6l-2.6-0.7l2.6-0.7L26.2,21z"/>
	<path d="M24.9,11.7v-1h1v-1h-1v-1h-1v1h-1v1h1v1H24.9z"/>
	<path d="M28,11.7h-1v1h-1v1h1v1h1v-1h1v-1h-1V11.7z"/>
	<path d="M3.6,26.7v-1h1v-1h-1v-1h-1v1h-1v1h1v1H3.6z"/>
	<path d="M2.1,7.5v-1h1v-1h-1v-1H1v1H0v1h1v1H2.1z"/>
	<path d="M15.6,2.6c-0.1,0.2,0,0.4,0.1,0.5l1.4,1.3l-0.3,1.9c0,0.3,0.1,0.6,0.4,0.6c0.1,0,0.2,0,0.3-0.1l1.7-0.9L21,7
		c0.2,0.1,0.4,0.1,0.5,0c0.2-0.1,0.2-0.3,0.2-0.5l-0.3-1.9l1.4-1.3C23,3,23,2.6,22.8,2.4c-0.1-0.1-0.2-0.1-0.3-0.2L20.6,2l-0.9-1.7
		C19.6,0,19.2-0.1,19,0.1c-0.1,0-0.1,0.1-0.2,0.2L17.9,2L16,2.3C15.8,2.3,15.7,2.4,15.6,2.6L15.6,2.6z M18.3,3
		c0.2,0,0.3-0.1,0.4-0.3l0.5-1l0.5,1C19.8,2.9,20,3,20.1,3l1.1,0.2L20.5,4c-0.1,0.1-0.2,0.3-0.1,0.5l0.2,1.1l-1-0.5
		c-0.2-0.1-0.3-0.1-0.5,0l-1,0.5l0.2-1.1c0-0.2,0-0.3-0.1-0.5l-0.8-0.8L18.3,3z"/>
	<path d="M12.5,11.5c-0.1,0.2,0,0.4,0.1,0.5l1.4,1.3l-0.3,1.9c0,0.3,0.1,0.6,0.4,0.6c0.1,0,0.2,0,0.3-0.1l1.7-0.9l1.7,0.9
		c0.2,0.1,0.4,0.1,0.5,0c0.2-0.1,0.2-0.3,0.2-0.5l-0.3-1.9l1.4-1.3c0.2-0.2,0.2-0.5,0-0.7c-0.1-0.1-0.2-0.1-0.3-0.2l-1.9-0.3
		l-0.9-1.7c-0.2-0.3-0.5-0.3-0.7-0.2c-0.1,0-0.1,0.1-0.2,0.2l-0.9,1.7l-1.9,0.3C12.7,11.1,12.5,11.3,12.5,11.5L12.5,11.5z
		 M15.2,11.8c0.2,0,0.3-0.1,0.4-0.3l0.5-1l0.5,1c0.1,0.2,0.2,0.3,0.4,0.3l1.1,0.2l-0.8,0.8c-0.1,0.1-0.2,0.3-0.1,0.5l0.2,1.1l-1-0.5
		c-0.2-0.1-0.3-0.1-0.5,0l-1,0.5l0.2-1.1c0-0.2,0-0.3-0.1-0.5L14.1,12L15.2,11.8z"/>
	<path d="M26.7,27.8l0.7-2.3l2.3-0.7c0.3-0.1,0.4-0.4,0.4-0.6c0-0.2-0.2-0.3-0.4-0.4l-2.3-0.7l-0.7-2.3c-0.1-0.3-0.4-0.4-0.6-0.4
		c-0.2,0-0.3,0.2-0.4,0.4L25,23.2l-2.3,0.7c-0.3,0.1-0.4,0.4-0.4,0.6c0,0.2,0.2,0.3,0.4,0.4l2.3,0.7l0.7,2.3
		c0.1,0.3,0.4,0.4,0.6,0.4C26.5,28.1,26.6,28,26.7,27.8z M26.2,25.8L25.9,25c0-0.2-0.2-0.3-0.4-0.4l-0.8-0.2l0.8-0.2
		c0.2,0,0.3-0.2,0.4-0.4l0.2-0.8l0.2,0.8c0,0.2,0.2,0.3,0.4,0.4l0.8,0.2l-0.8,0.2c-0.2,0-0.3,0.2-0.4,0.4L26.2,25.8z"/>
	<path class="st3" d="M9.5,5.9c0,0-9.9,11.6,4.3,18.4c0,0-5.8,0.6-8.7-5.4C3.3,15.2,4,8.7,9.5,5.9z"/>
	<path d="M25.4,15.6c0-0.3-0.2-0.5-0.5-0.6c-0.2,0-0.4,0.1-0.5,0.3c-2.2,4-7.3,5.5-11.3,3.3S7.6,11.3,9.8,7.2c0.5-0.9,1.2-1.7,2-2.4
		c0.2-0.2,0.3-0.5,0.1-0.7c-0.1-0.2-0.4-0.2-0.6-0.2c-5.8,1.7-9,7.8-7.3,13.6s7.8,9,13.6,7.3C21.8,23.5,24.9,19.9,25.4,15.6z
		 M14.5,24.2c-5.4,0-9.9-4.4-9.9-9.9c0-3.5,1.8-6.7,4.8-8.5c-2.9,4.2-1.9,10.1,2.4,13c3.7,2.6,8.8,2.1,11.9-1.1
		C22.3,21.7,18.6,24.2,14.5,24.2L14.5,24.2z"/>
</g>
</svg>
