<?xml version="1.0" encoding="utf-8"?>
<!-- Generator: Adobe Illustrator 22.1.0, SVG Export Plug-In . SVG Version: 6.00 Build 0)  -->
<svg version="1.1" id="Layer_1" xmlns="http://www.w3.org/2000/svg" xmlns:xlink="http://www.w3.org/1999/xlink" x="0px" y="0px"
	 viewBox="0 0 30 26.5" style="enable-background:new 0 0 30 26.5;" xml:space="preserve">
<style type="text/css">
	.st0{fill:#FECE2F;}
	.st1{fill:#F3C52D;}
	.st2{fill:#FBB540;}
	.st3{fill:#FFBE31;}
	.st4{fill:#6B9777;}
	.st5{fill:#85BC94;}
</style>
<g>
	<path class="st0" d="M21.1,16.7c0,3.4-2.7,6.1-6.1,6.1s-6.1-2.7-6.1-6.1s2.7-6.1,6.1-6.1S21.1,13.3,21.1,16.7z"/>
	<path class="st1" d="M11.3,16.1c-0.1,0-0.1,0-0.2,0c-0.3-0.1-0.5-0.4-0.4-0.7c0.4-1.4,1.6-2.6,3-3c0.3-0.1,0.6,0.1,0.7,0.4
		s-0.1,0.6-0.4,0.7c-1.1,0.3-1.9,1.2-2.2,2.2C11.7,15.9,11.5,16.1,11.3,16.1z"/>
	<path class="st2" d="M21.6,23.8c-0.2,0-0.3-0.1-0.4-0.2l-0.8-0.8c-0.2-0.2-0.2-0.6,0-0.8c0.2-0.2,0.6-0.2,0.8,0l0.8,0.8
		c0.2,0.2,0.2,0.6,0,0.8C21.9,23.7,21.7,23.8,21.6,23.8z"/>
	<path class="st3" d="M13.1,11.4c-0.2,0.1-0.4,0.2-0.6,0.3c2.8-0.8,5.7,0.5,6.7,3.1s-0.2,5.5-2.7,6.8c0.2-0.1,0.4-0.1,0.6-0.2
		c2.9-1.2,4.4-4.3,3.3-7.1C19.2,11.5,16,10.3,13.1,11.4z"/>
	<path class="st2" d="M8.3,23.9c-0.3,0-0.6-0.2-0.6-0.6c0-0.2,0.1-0.3,0.2-0.4l0.8-0.8c0.2-0.2,0.6-0.2,0.8,0s0.2,0.5,0,0.8
		l-0.8,0.8C8.6,23.8,8.5,23.9,8.3,23.9z"/>
	<path d="M19.7,12c-2.6-2.6-6.8-2.6-9.4,0s-2.6,6.8,0,9.4s6.8,2.6,9.4,0S22.3,14.6,19.7,12z M11.1,20.6c-2.2-2.2-2.2-5.7,0-7.9
		s5.7-2.2,7.9,0s2.2,5.7,0,7.9S13.2,22.8,11.1,20.6z"/>
	<path d="M13.7,12.4c-1.4,0.4-2.6,1.6-3,3c-0.1,0.3,0.1,0.6,0.4,0.7c0.1,0,0.1,0,0.2,0c0.2,0,0.5-0.2,0.5-0.4
		c0.3-1.1,1.2-1.9,2.2-2.2c0.3-0.1,0.5-0.4,0.4-0.7C14.3,12.5,14,12.3,13.7,12.4z"/>
	<path d="M22.1,9.6c-0.2-0.2-0.6-0.2-0.8,0l-0.8,0.8c-0.2,0.2-0.2,0.6,0,0.8s0.6,0.2,0.8,0l0,0l0.8-0.8C22.3,10.2,22.3,9.8,22.1,9.6
		z"/>
	<path d="M7.9,10.4l0.8,0.8c0.2,0.2,0.6,0.2,0.8,0s0.2-0.5,0-0.8L8.7,9.6c-0.2-0.2-0.6-0.2-0.8,0S7.7,10.2,7.9,10.4L7.9,10.4z"/>
	<path d="M4.4,16.1c-0.3,0-0.6,0.2-0.6,0.6c0,0.3,0.2,0.6,0.6,0.6h2.2c0.3,0,0.6-0.2,0.6-0.6c0-0.3-0.2-0.6-0.6-0.6H4.4z"/>
	<path d="M23.3,16.1c-0.3,0-0.6,0.2-0.6,0.6c0,0.3,0.2,0.6,0.6,0.6h2.2c0.3,0,0.6-0.2,0.6-0.6c0-0.3-0.2-0.6-0.6-0.6H23.3z"/>
	<g>
		<path d="M13,3.2c0.2,0.2,0.6,0.1,0.8-0.1l0.7-0.9V5c0,0.3,0.2,0.6,0.6,0.6c0.3,0,0.6-0.2,0.6-0.6V2.2l0.7,0.9
			c0.2,0.2,0.5,0.3,0.8,0.1c0.2-0.2,0.3-0.5,0.1-0.8l-1.7-2.2l0,0c-0.2-0.2-0.5-0.3-0.8-0.1l-0.1,0.1l0,0L13,2.4
			C12.7,2.7,12.8,3,13,3.2z"/>
		<path d="M15,6.7c-0.3,0-0.6,0.2-0.6,0.6v1.1C14.4,8.7,14.6,9,15,9c0.3,0,0.6-0.2,0.6-0.6V7.2C15.6,6.9,15.3,6.7,15,6.7z"/>
	</g>
	<path d="M7.9,23.7c0.2,0.2,0.6,0.2,0.8,0l0.8-0.8c0.2-0.2,0.2-0.6,0-0.8c-0.2-0.2-0.5-0.2-0.8,0L7.9,23C7.7,23.2,7.7,23.5,7.9,23.7
		z"/>
	<path d="M21.2,23.6c0.2,0.2,0.6,0.2,0.8,0c0.2-0.2,0.2-0.6,0-0.8L21.2,22c-0.2-0.2-0.6-0.2-0.8,0s-0.2,0.6,0,0.8L21.2,23.6z"/>
	<g>
		<path class="st4" d="M20.6,25.9h-20l10-5.6L20.6,25.9z"/>
		<g>
			<path class="st5" d="M29.4,25.9H11.7l8.9-7.8L29.4,25.9z"/>
			<path d="M0.6,26.5h28.9c0.3,0,0.6-0.2,0.6-0.6c0-0.2-0.1-0.3-0.2-0.4L21,17.7c-0.2-0.2-0.5-0.2-0.7,0l-5.1,4.5L11,19.9
				c-0.2-0.1-0.4-0.1-0.5,0l-10,5.6c-0.3,0.2-0.4,0.5-0.2,0.8C0.2,26.4,0.4,26.5,0.6,26.5z M20.6,18.9l7.4,6.5H13.1L20.6,18.9z
				 M10.6,21l3.6,2l-2.7,2.4H2.7L10.6,21z"/>
		</g>
	</g>
</g>
</svg>
