<?xml version="1.0" encoding="utf-8"?>
<!-- Generator: Adobe Illustrator 22.1.0, SVG Export Plug-In . SVG Version: 6.00 Build 0)  -->
<svg version="1.1" id="Capa_1" xmlns="http://www.w3.org/2000/svg" xmlns:xlink="http://www.w3.org/1999/xlink" x="0px" y="0px"
	 viewBox="0 0 30 23.5" style="enable-background:new 0 0 30 23.5;" xml:space="preserve">
<style type="text/css">
	.st0{fill:#FFD347;}
	.st1{fill:#FFBE31;}
	.st2{fill:#63B3FC;}
	.st3{fill:#80BDFF;}
	.st4{fill:#C4DEFF;}
</style>
<g>
	<circle class="st0" cx="15" cy="16" r="6.6"/>
	<path class="st1" d="M16.4,17.4c-3.3,0-6-2.4-6.5-5.6C9,13,8.4,14.4,8.4,16c0,3.6,2.9,6.6,6.6,6.6s6.6-2.9,6.6-6.6
		c0-0.3,0-0.7-0.1-1C20.3,16.5,18.5,17.4,16.4,17.4z"/>
	<g>
		<path class="st2" d="M19.8,18.3c-2.4,0-2.4,0.9-4.9,0.9s-2.4-0.9-4.9-0.9s-2.4,0.9-4.9,0.9s-2.4-0.9-4.9-0.9l0.8,0.9
			c1.6,1.8,3.9,2.9,6.4,2.9h14.9c2.4,0,4.8-1.1,6.4-2.9l0.8-0.9c-2.4,0-2.4,0.9-4.9,0.9S22.3,18.3,19.8,18.3z"/>
		<path class="st3" d="M24.7,19.3c-2.4,0-2.4-0.9-4.9-0.9c-2.4,0-2.4,0.9-4.9,0.9s-2.4-0.9-4.9-0.9s-2.4,0.9-4.9,0.9
			s-2.4-0.9-4.9-0.9l2.4,2.4c0.6,0.2,1.2,0.5,2.4,0.5c2.4,0,2.4-0.9,4.9-0.9s2.4,0.9,4.9,0.9s2.4-0.9,4.9-0.9s2.4,0.9,4.9,0.9
			c1.2,0,1.8-0.2,2.4-0.5l2.4-2.4C27.1,18.3,27.1,19.3,24.7,19.3z"/>
	</g>
	<g>
		<path class="st1" d="M6.8,7.1c-0.7,0-1.3,0.3-1.7,0.7C4.9,7.6,4.6,7.6,4.3,7.6c-1.1,0-2,0.9-2,2h7C9.4,8.2,8.2,7.1,6.8,7.1z"/>
		<path class="st1" d="M19.9,14c0.7,0,1.3,0.3,1.7,0.7c0.2-0.1,0.5-0.2,0.8-0.2c1.1,0,2,0.9,2,2h-7C17.3,15.1,18.5,14,19.9,14z"/>
	</g>
	<path class="st4" d="M22.4,22.1c1.6,0,3.2-0.5,4.6-1.4c-0.6,0.2-1.2,0.4-2.3,0.4c-2.4,0-2.4-0.9-4.9-0.9c-2.4,0-2.4,0.9-4.9,0.9
		s-2.4-0.9-4.9-0.9s-2.4,0.9-4.9,0.9c-1.1,0-1.7-0.2-2.3-0.4c1.4,0.9,2.9,1.4,4.6,1.4h4.2L15,23l2.8-0.9L22.4,22.1L22.4,22.1z"/>
	<path d="M29.6,17.9c-1.3,0-2,0.3-2.6,0.5c-0.6,0.2-1.1,0.4-2.3,0.4s-1.7-0.2-2.3-0.4c-0.6-0.2-1.3-0.5-2.6-0.5
		c-1.3,0-2,0.3-2.6,0.5c-0.6,0.2-1.1,0.4-2.3,0.4s-1.7-0.2-2.3-0.4c-0.6-0.2-1.3-0.5-2.6-0.5s-2,0.3-2.6,0.5
		c-0.6,0.2-1.1,0.4-2.3,0.4S3.6,18.6,3,18.4c-0.6-0.2-1.3-0.5-2.6-0.5c-0.2,0-0.4,0.2-0.4,0.4s0.2,0.4,0.4,0.4
		c1.1,0,1.7,0.2,2.3,0.4c0.6,0.2,1.3,0.5,2.6,0.5s2-0.3,2.6-0.5c0.6-0.2,1.1-0.4,2.3-0.4s1.7,0.2,2.3,0.4c0.6,0.2,1.3,0.5,2.6,0.5
		s2-0.3,2.6-0.5c0.6-0.2,1.1-0.4,2.3-0.4s1.7,0.2,2.3,0.4c0.6,0.2,1.3,0.5,2.6,0.5c1.3,0,2-0.3,2.6-0.5c0.6-0.2,1.1-0.4,2.3-0.4
		c0.2,0,0.4-0.2,0.4-0.4S29.8,17.9,29.6,17.9z"/>
	<path d="M27.1,20.3L27.1,20.3c-0.3,0.1-0.6,0.2-0.9,0.3c-0.2,0.1-0.4,0.3-0.3,0.5c0.1,0.2,0.2,0.3,0.4,0.3c0,0,0.1,0,0.1,0
		c0.3-0.1,0.6-0.2,0.9-0.3l0.1,0c0.2-0.1,0.3-0.3,0.3-0.6C27.5,20.3,27.3,20.2,27.1,20.3z"/>
	<path d="M24.4,20.7c-0.9,0-1.4-0.2-2-0.4c-0.6-0.2-1.3-0.5-2.6-0.5c-1.3,0-2,0.3-2.6,0.5c-0.6,0.2-1.1,0.4-2.3,0.4
		s-1.7-0.2-2.3-0.4c-0.6-0.2-1.3-0.5-2.6-0.5s-2,0.3-2.6,0.5c-0.5,0.2-1,0.4-2,0.4c-0.2,0-0.4,0.2-0.4,0.5c0,0.2,0.2,0.4,0.5,0.4
		c1.1,0,1.7-0.3,2.3-0.5c0.6-0.2,1.1-0.4,2.3-0.4s1.7,0.2,2.3,0.4c0.6,0.2,1.3,0.5,2.6,0.5s2-0.3,2.6-0.5c0.6-0.2,1.1-0.4,2.3-0.4
		s1.7,0.2,2.3,0.4c0.6,0.2,1.2,0.5,2.3,0.5c0.2,0,0.4-0.2,0.5-0.4C24.8,20.9,24.6,20.7,24.4,20.7z"/>
	<path d="M19.8,21.7c-1.3,0-2,0.3-2.6,0.5c-0.6,0.2-1.1,0.4-2.3,0.4s-1.7-0.2-2.3-0.4c-0.6-0.2-1.3-0.5-2.6-0.5
		c-0.2,0-0.4,0.2-0.4,0.4c0,0.2,0.2,0.4,0.4,0.4c1.1,0,1.7,0.2,2.3,0.4c0.6,0.2,1.3,0.5,2.6,0.5s2-0.3,2.6-0.5
		c0.6-0.2,1.1-0.4,2.3-0.4c0.2,0,0.4-0.2,0.4-0.4C20.3,21.9,20.1,21.7,19.8,21.7z"/>
	<path d="M3.8,20.6c-0.3-0.1-0.6-0.2-0.8-0.3c-0.2-0.1-0.5,0-0.6,0.3c-0.1,0.2,0,0.5,0.3,0.6c0.3,0.1,0.6,0.2,0.9,0.3
		c0,0,0.1,0,0.1,0c0.2,0,0.4-0.1,0.4-0.3C4.2,20.9,4.1,20.6,3.8,20.6z"/>
	<path d="M8,16.5c0,0.2,0.2,0.4,0.4,0.4c0,0,0,0,0,0c0.2,0,0.4-0.2,0.4-0.5c0-0.1,0-0.3,0-0.4c0-3.4,2.8-6.1,6.1-6.1
		c2,0,3.9,1,5,2.6c0.1,0.2,0.4,0.2,0.6,0.1c0.2-0.1,0.2-0.4,0.1-0.6c-1.3-1.9-3.5-3-5.8-3c-3.9,0-7,3.1-7,7C8,16.2,8,16.3,8,16.5z"
		/>
	<path d="M3.2,15.6c-0.2,0-0.4,0.2-0.4,0.4s0.2,0.4,0.4,0.4h2.8c0.2,0,0.4-0.2,0.4-0.4s-0.2-0.4-0.4-0.4H3.2z"/>
	<path d="M15,7.5c0.2,0,0.4-0.2,0.4-0.4v-4c0-0.2-0.2-0.4-0.4-0.4s-0.4,0.2-0.4,0.4v4C14.6,7.3,14.8,7.5,15,7.5z"/>
	<path d="M21.3,10.1c0.1,0,0.2,0,0.3-0.1l2-2c0.2-0.2,0.2-0.5,0-0.6c-0.2-0.2-0.5-0.2-0.6,0l-2,2c-0.2,0.2-0.2,0.5,0,0.6
		C21.1,10.1,21.2,10.1,21.3,10.1z"/>
	<path d="M11.2,7.9c0.1,0.2,0.2,0.3,0.4,0.3c0.1,0,0.1,0,0.2,0C12,8.1,12.1,7.8,12,7.6l-0.4-0.9c-0.1-0.2-0.4-0.3-0.6-0.2
		c-0.2,0.1-0.3,0.4-0.2,0.6L11.2,7.9z"/>
	<path d="M22.8,12.7c0.1,0.2,0.2,0.3,0.4,0.3c0.1,0,0.1,0,0.2,0l0.9-0.4c0.2-0.1,0.3-0.4,0.2-0.6c-0.1-0.2-0.4-0.3-0.6-0.2l-0.9,0.4
		C22.8,12.3,22.7,12.5,22.8,12.7z"/>
	<path d="M18.2,8.2c0.1,0,0.1,0,0.2,0c0.2,0,0.3-0.1,0.4-0.3l0.4-0.9c0.1-0.2,0-0.5-0.2-0.6c-0.2-0.1-0.5,0-0.6,0.2L18,7.6
		C17.9,7.8,18,8.1,18.2,8.2z"/>
	<path d="M15,1.8c0.1,0,0.1,0,0.2,0c0.2-0.1,0.3-0.2,0.3-0.4l0-0.9C15.4,0.2,15.2,0,15,0s-0.4,0.2-0.4,0.4l0,0.9
		C14.6,1.6,14.8,1.8,15,1.8z"/>
	<path d="M6.7,13c0.2,0,0.3-0.1,0.4-0.3c0.1-0.2,0-0.5-0.2-0.6L6,11.8c-0.2-0.1-0.5,0-0.6,0.2c-0.1,0.2,0,0.5,0.2,0.6L6.6,13
		C6.6,13,6.7,13,6.7,13z"/>
	<path d="M2.3,10h7c0.2,0,0.4-0.2,0.4-0.4c0-1.6-1.3-3-3-3C6.2,6.6,5.6,6.8,5,7.2C4.8,7.2,4.6,7.1,4.3,7.1C3,7.1,1.9,8.2,1.9,9.6
		C1.9,9.8,2.1,10,2.3,10z M4.3,8c0.2,0,0.4,0,0.6,0.1c0.2,0.1,0.3,0,0.5-0.1c0.4-0.4,0.9-0.6,1.4-0.6c1,0,1.8,0.7,2,1.6H2.8
		C3,8.5,3.6,8,4.3,8z"/>
	<path d="M22.4,14c-0.2,0-0.5,0-0.7,0.1c-0.5-0.4-1.1-0.6-1.8-0.6c-1.6,0-3,1.3-3,3c0,0.2,0.2,0.4,0.4,0.4h7c0.2,0,0.4-0.2,0.4-0.4
		C24.8,15.1,23.7,14,22.4,14z M17.8,16c0.2-0.9,1-1.6,2-1.6c0.5,0,1,0.2,1.4,0.6c0.1,0.1,0.3,0.2,0.5,0.1c0.2-0.1,0.4-0.1,0.6-0.1
		c0.7,0,1.3,0.5,1.5,1.1L17.8,16L17.8,16z"/>
	<path d="M14.6,7.4c0.1,0.1,0.3,0.2,0.5,0.1c0.1,0,0.1-0.1,0.1-0.1c0.2-0.2,0.2-0.5,0-0.6l-1-0.9c-0.2-0.2-0.5-0.2-0.6,0
		c-0.2,0.2-0.2,0.5,0,0.6L14.6,7.4z"/>
	<path d="M16.3,6.4c0.2-0.2,0.2-0.4,0-0.6s-0.4-0.2-0.6,0l-1,0.9c-0.2,0.2-0.2,0.4,0,0.6c0,0,0.1,0.1,0.1,0.1c0.2,0.1,0.4,0,0.5-0.1
		L16.3,6.4z"/>
</g>
</svg>
